PathFileType	4	(X/Y/Z)	Squat.trc	
DataRate	CameraRate	NumFrames	NumMarkers	Units	OrigDataRate	OrigDataStartFrame	OrigNumFrames	
100.00	100.00	55	6	mm	100.00	1735	1542	
Frame#	Time	RAsis			SACR			LThighInferior			LThighLateral			LAsis			LThighSuperior			
		X1	Y1	Z1	X2	Y2	Z2	X3	Y3	Z3	X4	Y4	Z4	X5	Y5	Z5	X6	Y6	Z6	

964	9.630	540.01593	1372.67065	971.13806	412.64731	1203.47925	1007.39404	213.00768	1299.67017	619.73767	235.03267	1394.13574	696.57916	289.52917	1380.99866	959.04730	204.91466	1304.35950	767.54468 
965	9.640	539.89429	1372.46631	971.25311	412.60745	1203.29456	1007.32269	212.95432	1299.76001	619.70538	234.80040	1394.22998	696.58734	289.38867	1380.83582	959.15955	204.87086	1304.32886	767.52142 
966	9.650	539.68274	1372.28308	971.44354	412.55994	1203.18298	1007.31226	212.92050	1299.84412	619.66736	234.62714	1394.27759	696.62628	289.24945	1380.65710	959.27386	204.77785	1304.32190	767.54858 
967	9.660	539.45685	1372.10242	971.62238	412.46527	1203.14514	1007.37030	212.89276	1299.92480	619.65991	234.70667	1394.27820	696.76447	289.12820	1380.50220	959.38025	204.73062	1304.25610	767.57532 
968	9.670	539.26025	1371.92761	971.77338	412.45123	1202.67627	1006.99243	212.84813	1300.02087	619.68097	234.85081	1394.25952	696.91107	288.99731	1380.34753	959.48279	204.65053	1304.20581	767.58221 
969	9.680	539.25159	1371.71472	971.95654	412.43561	1202.32117	1006.79169	212.79370	1300.11951	619.69800	234.67635	1394.28906	696.95166	288.85648	1380.19153	959.58557	204.50266	1304.18896	767.56720 
970	9.690	538.99554	1371.49524	972.00189	412.34354	1202.08704	1006.74402	212.74022	1300.20728	619.69464	234.55859	1394.28894	697.04065	288.71857	1380.03516	959.69208	204.37868	1304.14636	767.53571 
971	9.700	538.09058	1371.28943	972.75964	412.16666	1201.85852	1006.70929	212.71898	1300.24084	619.68036	234.63417	1394.26025	697.18854	288.60150	1379.82507	959.82062	204.29585	1304.07471	767.52094 
972	9.710	537.80438	1371.05542	973.10333	412.15088	1201.49280	1006.61487	212.69279	1300.28418	619.66583	234.60213	1394.27747	697.27405	288.53503	1379.54578	959.96210	204.22134	1303.99536	767.49042 
973	9.720	537.80139	1370.80969	973.20557	412.26157	1200.98853	1006.51678	212.64240	1300.37659	619.63269	234.67320	1394.23230	697.36841	288.60092	1379.08765	960.00330	204.12622	1303.93042	767.43286 
974	9.730	537.85693	1370.53003	973.26160	412.26660	1200.59668	1006.41217	212.60957	1300.45422	619.55780	234.78656	1394.17126	697.45435	288.72772	1378.51697	959.94147	204.01128	1303.87964	767.38513 
975	9.740	537.97076	1370.21387	973.35291	412.22821	1200.27930	1006.20868	212.56689	1300.55249	619.47528	234.81427	1394.17419	697.51135	288.79803	1377.97009	959.97687	203.92264	1303.84338	767.35168 
976	9.750	538.08600	1369.89917	973.51013	412.25357	1199.98132	1005.94366	212.49971	1300.68652	619.42346	234.84082	1394.20117	697.59094	288.84811	1377.40393	960.09430	203.85480	1303.82043	767.32190 
977	9.760	538.20831	1369.52649	973.67114	412.25977	1199.74121	1005.80908	212.44147	1300.79675	619.38782	234.86703	1394.21326	697.66602	288.73013	1377.03455	960.18066	203.75543	1303.77039	767.26630 
978	9.770	538.30164	1369.04150	973.79364	412.25430	1199.41736	1005.81024	212.40863	1300.85730	619.33856	234.90956	1394.19507	697.72369	288.45197	1376.86194	960.26935	203.63614	1303.66858	767.16876 
979	9.780	538.27283	1368.50916	973.88721	412.21454	1198.80457	1005.66010	212.39243	1300.91931	619.26068	234.81274	1394.21252	697.76501	288.21033	1376.63049	960.36200	203.49815	1303.58264	767.08630 
980	9.790	538.06464	1368.00952	973.96838	412.08273	1197.81409	1005.31055	212.35641	1301.06616	619.18610	234.54910	1394.29199	697.78479	288.08817	1376.24353	960.45239	202.90900	1303.91272	767.14001 
981	9.800	537.78589	1367.54297	974.00354	411.95645	1196.92773	1005.04248	212.30661	1301.26147	619.14142	234.43883	1394.34961	697.86383	288.05606	1375.71631	960.55200	202.37257	1304.20496	767.17511 
982	9.810	537.57013	1367.05579	974.00671	411.85794	1196.51025	1004.89978	212.29166	1301.43433	619.08881	234.52609	1394.36255	698.03717	287.99292	1375.17761	960.66699	202.81641	1303.65686	766.98199 
983	9.820	537.43201	1366.52173	973.99823	411.76041	1196.33826	1004.70221	212.30156	1301.63428	619.01910	234.63487	1394.35559	698.22241	287.92041	1374.63367	960.77112	203.27489	1303.08801	766.77930 
984	9.830	537.42175	1365.96069	973.97198	411.62445	1196.05750	1004.45038	212.28995	1301.86401	618.97339	234.73543	1394.33313	698.37952	287.86148	1374.02466	960.83435	203.21042	1302.95435	766.68524 
985	9.840	537.62445	1365.38257	973.95233	411.48572	1195.48804	1004.28943	212.27443	1302.03882	618.92700	234.80959	1394.28711	698.50647	287.79288	1373.37842	960.88538	203.16348	1302.81689	766.61444 
986	9.850	538.05493	1364.77686	973.89819	411.56464	1194.26953	1004.18237	212.27698	1302.13049	618.85022	234.88437	1394.21826	698.63867	287.76550	1372.74780	960.96277	203.17386	1302.60034	766.57739 
987	9.860	538.51398	1364.16187	973.72412	411.60852	1193.57629	1004.20251	212.29265	1302.17163	618.77264	234.99036	1394.12817	698.79944	287.73880	1372.17065	961.06531	203.17278	1302.32776	766.55090 
988	9.870	538.70520	1363.57727	973.41742	411.81940	1192.93811	1004.35376	212.31400	1302.22021	618.71240	235.23232	1393.91797	698.95483	287.62952	1371.62158	961.12054	202.68997	1302.46777	766.63110 
989	9.880	538.62323	1362.99915	973.17310	411.73605	1192.49963	1004.03748	212.32278	1302.23645	618.65643	235.44653	1393.67578	699.07281	287.49481	1371.04126	961.10590	202.21036	1302.57251	766.70087 
990	9.890	538.40985	1362.39600	973.16425	411.61612	1191.85657	1003.79205	212.29131	1302.23962	618.67914	235.50359	1393.48865	699.17889	287.44080	1370.37183	961.08533	202.65663	1301.79919	766.52258 
991	9.900	538.08282	1361.80151	973.31470	411.51410	1191.02698	1003.66699	212.24417	1302.20911	618.70966	235.71437	1393.15393	699.31732	287.47226	1369.61670	961.06921	203.07426	1301.03223	766.34387 
992	9.910	537.70209	1361.18066	973.51288	411.44330	1190.40735	1003.60089	212.25148	1301.96631	618.58972	235.92291	1392.70984	699.42847	287.50674	1368.90564	961.05817	203.01590	1300.65881	766.28595 
993	9.920	537.36200	1360.50317	973.69104	411.32214	1189.77625	1003.59406	212.25899	1301.61816	618.47931	235.95010	1392.28540	699.47009	287.46021	1368.32764	961.07397	202.94530	1300.22961	766.22687 
994	9.930	537.06433	1359.88037	973.78638	411.19931	1188.88721	1003.63269	212.21147	1301.28967	618.44409	235.94899	1391.82800	699.47461	287.33578	1367.82849	961.09961	202.87938	1299.74243	766.16168 
995	9.940	536.89166	1359.33350	973.77240	411.15262	1188.23669	1003.62781	212.14124	1300.92529	618.38977	235.94279	1391.32886	699.49078	287.20889	1367.29492	961.08240	202.80692	1299.26038	766.15070 
996	9.950	536.97021	1358.77136	973.74133	411.12589	1187.75696	1003.59174	212.07051	1300.51331	618.34180	235.94022	1390.82715	699.54663	287.14246	1366.65930	961.01086	202.70166	1298.78528	766.18713 
997	9.960	537.31262	1358.18555	973.81085	411.08527	1187.11890	1003.58777	212.01062	1300.05225	618.29303	235.94125	1390.31836	699.59961	287.16751	1365.91443	960.90826	202.66821	1298.16711	766.14752 
998	9.970	537.81628	1357.60376	973.97748	411.08591	1186.60132	1003.58795	211.94733	1299.52673	618.24060	235.91589	1389.74695	699.61841	287.19965	1365.13757	960.78760	202.67390	1297.47070	766.06061 
999	9.980	538.44568	1357.14209	973.85840	411.14813	1186.36987	1003.60907	211.88225	1298.92188	618.20898	235.84689	1389.10229	699.63098	287.08676	1364.50549	960.72632	202.58975	1296.86267	766.01990 
1000	9.990	538.63831	1356.81006	973.15393	411.22479	1185.97363	1003.72675	211.79910	1298.28271	618.18408	235.74396	1388.42920	699.67627	286.84381	1364.05615	960.77692	202.46271	1296.28735	766.02466 
1001	10.000	538.00861	1356.43054	972.45593	411.28549	1185.23999	1003.85242	211.68840	1297.66797	618.18250	235.61647	1387.76196	699.73438	286.64438	1363.60376	960.89978	202.38541	1295.66162	766.09015 
1002	10.010	537.57135	1355.99109	972.08905	411.32892	1184.76929	1003.93085	211.54463	1297.13635	618.28442	235.48174	1387.12817	699.76324	286.54834	1362.96619	961.03021	202.41121	1294.90967	766.16858 
1003	10.020	537.63354	1355.53589	971.81262	411.35986	1184.65100	1004.00684	211.39143	1296.60596	618.36505	235.36919	1386.54822	699.77844	286.45285	1362.18689	961.06702	202.46223	1294.10181	766.16681 
1004	10.030	537.57544	1355.08740	971.76190	411.41183	1184.21375	1004.10718	211.33153	1295.95398	618.26294	235.28572	1385.95972	699.80872	286.23120	1361.44312	961.16241	202.41830	1293.41028	766.07996 
1005	10.040	537.39734	1354.67737	971.86646	411.51849	1183.39990	1004.25562	211.30284	1295.32544	618.16473	235.21748	1385.33411	699.84735	286.01218	1360.71594	961.30347	202.30093	1292.83997	766.00916 
1006	10.050	537.22284	1354.27014	971.91083	411.63516	1182.73376	1004.40869	211.22299	1294.80127	618.13696	235.15764	1384.73328	699.87091	286.12683	1360.03333	960.85382	202.15811	1292.34131	766.04279 
1007	10.060	537.03894	1353.86829	971.98486	411.69495	1182.27185	1004.53033	211.15735	1294.31738	618.09283	235.09793	1384.19812	699.88116	286.32275	1359.55286	960.03778	202.00859	1291.87219	766.10815 
1008	10.070	536.83173	1353.47485	972.10254	411.64786	1182.01160	1004.52295	211.11533	1293.85303	618.05280	235.02811	1383.70068	699.89459	286.19339	1359.15417	959.69421	201.88956	1291.37341	766.11652 
1009	10.080	536.64655	1353.05151	972.19684	411.55060	1181.87390	1004.40515	211.04056	1293.39062	618.01355	234.93593	1383.17847	699.90277	285.95535	1358.68982	959.65771	201.87839	1290.70288	766.04565 
1010	10.090	536.55237	1352.61914	972.27740	411.47775	1181.57959	1004.28894	210.93095	1292.94421	617.97845	234.83345	1382.66064	699.91254	285.88550	1358.09412	959.57062	201.95349	1289.88550	765.90833 
1011	10.100	536.49829	1352.21765	972.37433	411.31622	1181.00354	1004.12280	210.84906	1292.51880	617.94391	234.72050	1382.19458	699.93378	286.00864	1357.29944	959.39343	201.94682	1289.22363	765.79199 
1012	10.110	536.43036	1351.84766	972.50330	411.13651	1180.21008	1003.92932	210.79118	1292.13574	617.89441	234.49051	1381.80811	699.92755	286.08496	1356.53613	959.20844	201.80666	1288.82251	765.75134 
1013	10.120	536.35797	1351.48560	972.63263	411.12195	1179.54858	1003.84845	210.72020	1291.82056	617.83112	234.26195	1381.44617	699.92151	285.89752	1356.04138	959.19250	201.63074	1288.49500	765.75140 
1014	10.130	536.26959	1351.06226	972.71985	411.12976	1179.13477	1003.92261	210.64926	1291.53711	617.75525	234.23541	1381.01196	699.98181	285.25845	1355.04114	960.62366	201.02780	1288.48218	765.87408 
1015	10.140	536.19196	1350.60596	972.77704	411.08670	1178.70923	1004.07678	210.59700	1291.24231	617.69305	234.20395	1380.60107	700.06689	284.93011	1354.49500	961.07294	199.99983	1288.80530	766.08789 
1016	10.150	536.18359	1350.20959	972.84668	411.04025	1178.24573	1004.19281	210.56436	1290.95972	617.66144	233.99310	1380.31311	700.12476	284.82776	1354.08789	960.99231	199.46497	1288.71863	766.11426 
1017	10.160	536.12012	1349.74976	972.87372	410.98883	1177.94006	1004.24860	210.51530	1290.74963	617.62756	233.81978	1380.03796	700.18439	284.95444	1353.70593	960.42883	199.91779	1287.78247	765.79712 
1018	10.170	535.84619	1349.12939	972.72437	410.99210	1177.68408	1004.26910	210.45064	1290.57825	617.57733	233.75439	1379.73596	700.24750	285.35696	1353.66895	958.98724	200.86986	1286.46924	765.34906 
